<svg width="117" height="37" viewBox="0 0 117 37" fill="none" xmlns="http://www.w3.org/2000/svg">
<path fill-rule="evenodd" clip-rule="evenodd" d="M34.042 25.9979L34.0421 25.9981C34.5622 27.3234 34.6778 28.591 34.5044 29.8586C34.0998 32.5091 32.3661 34.8139 29.8233 35.851C28.8986 36.2543 27.9162 36.4272 26.876 36.4272C26.587 36.4272 26.2403 36.4272 25.9513 36.3696C24.7377 36.2543 23.5241 35.851 22.3105 35.1596C20.8657 34.3529 19.4209 33.1429 17.8028 31.4143C16.1846 33.1429 14.7976 34.3529 13.2951 35.1596C12.0815 35.851 10.8678 36.1967 9.65423 36.3696C9.50975 36.3696 9.35083 36.384 9.1919 36.3984C9.03298 36.4128 8.87405 36.4272 8.72957 36.4272C7.68933 36.4272 6.70689 36.2543 5.78223 35.851C3.29722 34.8139 1.4479 32.5667 1.04336 29.8586C0.869991 28.5334 1.04336 27.2658 1.50569 25.9981C1.67907 25.4796 1.85244 25.0762 2.02581 24.6729L2.02584 24.6729C2.31478 24.0391 2.60373 23.4053 2.83489 22.8291L2.89268 22.7715C5.43548 17.3553 8.09387 11.8815 10.8678 6.46528L10.9834 6.23481C11.2724 5.71626 11.5613 5.14009 11.8503 4.56393L11.8503 4.56385C11.9281 4.44192 12.0059 4.31785 12.0846 4.19247C12.4148 3.66613 12.7594 3.11668 13.1795 2.60481C14.3931 1.22195 16.0112 0.415283 17.8028 0.415283C19.5365 0.415283 21.2124 1.22195 22.3683 2.66243C22.9462 3.29624 23.3507 3.98766 23.6975 4.62147C23.9864 5.19766 24.2754 5.77385 24.5643 6.29243L24.6799 6.5229C27.5117 11.9391 30.1701 17.4129 32.6551 22.8291H32.7129C32.944 23.4053 33.233 24.0391 33.5219 24.6729L33.5219 24.6729C33.6953 25.0762 33.8686 25.537 34.042 25.9979ZM61.9551 9.46147C61.9551 10.7867 60.9149 11.8239 59.5857 11.8239C58.2565 11.8239 57.2163 10.7867 57.2163 9.46147C57.2163 8.13624 58.2565 7.09909 59.5857 7.09909C60.9727 7.15671 61.9551 8.19385 61.9551 9.46147ZM52.304 14.1862V14.7624C52.304 14.7624 51.206 13.3219 48.7788 13.3219C44.849 13.3219 41.7861 16.3181 41.7861 20.4667C41.7861 24.5577 44.849 27.6115 48.7788 27.6115C51.206 27.6115 52.304 26.1134 52.304 26.1134V26.7472C52.304 27.0353 52.5352 27.2658 52.8241 27.2658H55.7715V13.6677H52.8241C52.4774 13.6677 52.304 13.8981 52.304 14.1862ZM49.3567 24.3272C50.6859 24.3272 51.7839 23.6358 52.304 22.8291V17.9891C51.7839 17.24 50.6281 16.491 49.3567 16.491C47.045 16.491 45.2535 17.9315 45.2535 20.4091C45.2535 22.8867 47.045 24.3272 49.3567 24.3272ZM57.852 13.6677H61.3194V27.2081H57.852V13.6677ZM106.165 14.7624C106.165 14.7624 107.321 13.322 109.691 13.322C113.62 13.322 116.683 16.3181 116.683 20.4091C116.683 24.5 113.62 27.5539 109.691 27.5539C107.263 27.5539 106.165 26.0558 106.165 26.0558V26.6896C106.165 26.9777 105.934 27.2081 105.645 27.2081H102.698V7.15671H106.165V14.7624ZM109.113 24.2696C107.783 24.2696 106.743 23.5781 106.165 22.7715V17.9315C106.685 17.1824 107.841 16.4334 109.113 16.4334C111.424 16.4334 113.216 17.8739 113.216 20.3515C113.216 22.8291 111.424 24.2696 109.113 24.2696ZM100.906 27.2658V19.1991C100.906 16.8943 100.444 15.6267 99.2881 14.6472C98.2479 13.7829 96.9765 13.3219 95.4739 13.3219C94.1447 13.3219 92.8155 13.7253 91.7753 14.7624V14.1862C91.7753 13.8981 91.5441 13.6677 91.2552 13.6677H88.4812V27.2658H91.9487V17.8162C92.6422 17.0096 93.7402 16.491 94.7804 16.491C96.6875 16.491 97.4388 17.3553 97.4388 19.6024V27.2658H100.906ZM80.0437 13.322C77.6743 13.322 76.5185 14.7624 76.5185 14.7624V7.15671H73.051V27.2081H75.9984C76.2873 27.2081 76.5185 26.9777 76.5185 26.6896V26.0558C76.5185 26.0558 77.6165 27.5539 80.0437 27.5539C83.9735 27.5539 87.0364 24.5 87.0364 20.4091C87.0942 16.3181 84.0313 13.322 80.0437 13.322ZM76.5185 22.7715C77.0964 23.5781 78.1366 24.2696 79.4658 24.2696C81.7775 24.2696 83.569 22.8291 83.569 20.3515C83.569 17.8739 81.7775 16.4334 79.4658 16.4334C78.1944 16.4334 77.0386 17.1824 76.5185 17.9315V22.7715ZM70.1037 13.3219C71.1439 13.3219 71.7218 13.4948 71.7218 13.4948V16.7215C71.7218 16.7215 68.8323 15.742 67.0407 17.8162V27.2658H63.5733V13.6677H66.5206C66.8096 13.6677 67.0407 13.8981 67.0407 14.1862V14.7624C67.6187 14.0134 69.0056 13.3219 70.1037 13.3219ZM17.745 27.8419C15.7801 25.3643 14.5087 23.0596 14.1041 21.1581C13.9308 20.3515 13.873 19.6024 13.9886 18.9686C14.0464 18.3924 14.2775 17.8739 14.5665 17.4705C15.26 16.491 16.4158 15.8572 17.745 15.8572C19.0742 15.8572 20.2878 16.4334 20.9235 17.4705C21.2124 17.9315 21.4436 18.3924 21.5014 18.9686C21.617 19.6024 21.5592 20.3515 21.3858 21.1581C20.9813 23.0596 19.7099 25.3643 17.745 27.8419ZM28.8986 33.7767C30.6902 33.0853 31.9616 31.472 32.1927 29.5705C32.3083 28.591 32.1927 27.7267 32.0194 26.8048C31.9568 26.6176 31.8773 26.4305 31.79 26.225C31.7161 26.051 31.6365 25.8638 31.557 25.6524C31.4126 25.3643 31.2825 25.0618 31.1525 24.7593C31.0225 24.4568 30.8924 24.1543 30.748 23.8662V23.8086C28.2629 18.45 25.6046 12.9762 22.8306 7.61766L22.715 7.38719C22.4261 6.811 22.1371 6.23481 21.8481 5.71624C21.5592 5.14005 21.2124 4.56385 20.8079 4.1029C20.0566 3.23862 19.0164 2.77766 17.9184 2.77766C16.8203 2.77766 15.7801 3.23862 15.0288 4.1029C14.6243 4.62147 14.2775 5.14005 13.9886 5.71624L13.9885 5.71635C13.6996 6.2925 13.4106 6.86865 13.1217 7.38719L13.0061 7.61766C10.1743 12.9762 7.51596 18.45 5.03095 23.8086L4.97316 23.8662C4.6842 24.4424 4.39525 25.0762 4.16408 25.6524L4.16407 25.6525C3.9907 26.0558 3.81733 26.4591 3.70175 26.8048C3.29722 27.842 3.23942 28.7062 3.35501 29.6281C3.58617 31.472 4.85757 33.0853 6.6491 33.8343C7.45817 34.1224 8.38283 34.2953 9.36528 34.18C10.2899 34.0648 11.2146 33.7767 12.1392 33.2581C13.4106 32.5091 14.7398 31.4143 16.2424 29.7434C13.873 26.8048 12.3704 24.0967 11.8503 21.7343C11.5613 20.6396 11.5035 19.6024 11.6769 18.6805C11.8503 17.7586 12.1392 16.952 12.6594 16.2029C13.7574 14.6472 15.6645 13.6677 17.745 13.6677C19.8255 13.6677 21.7326 14.5896 22.8306 16.2029C23.3507 16.952 23.6397 17.7586 23.813 18.6805C23.9286 19.6024 23.8708 20.6396 23.6397 21.7343C23.0618 24.0967 21.617 26.7472 19.2475 29.6858C20.7501 31.3567 22.0215 32.4515 23.3507 33.2005C24.3332 33.7191 25.2 34.0072 26.1247 34.1224C27.1071 34.2377 28.0318 34.1224 28.8986 33.7767Z" fill="#AEC0CE"/>
</svg>
