<svg width="117" height="39" viewBox="0 0 117 39" fill="none" xmlns="http://www.w3.org/2000/svg">
<path d="M29.4586 13.552H15.9166V17.545H25.5465C25.065 23.1715 20.3704 25.652 15.9768 25.652C10.3193 25.652 5.38397 21.175 5.38397 14.9435C5.38397 8.83299 10.0785 4.11399 15.9768 4.11399C20.551 4.11399 23.1992 7.01799 23.1992 7.01799L25.9678 4.11399C25.9678 4.11399 22.3566 0.120991 15.7962 0.120991C7.43032 0.0604905 0.990356 7.13899 0.990356 14.8225C0.990356 22.3245 7.0692 29.645 16.037 29.645C23.9214 29.645 29.6993 24.2605 29.6993 16.214C29.6993 14.52 29.4586 13.552 29.4586 13.552Z" fill="#AEC0CE"/>
<path fill-rule="evenodd" clip-rule="evenodd" d="M30.9633 20.0255C30.9633 14.9435 34.9356 10.5875 40.4727 10.5875C45.0469 10.5875 49.9822 13.8545 50.0424 20.1465C50.0424 25.7125 45.8293 29.645 40.5931 29.645C34.8152 29.645 30.9633 25.2285 30.9633 20.0255ZM45.8293 20.1465C45.8293 16.6375 43.2413 14.399 40.5329 14.399C37.4634 14.399 35.1161 16.819 35.1763 20.086C35.1763 23.474 37.5236 25.894 40.5329 25.894C43.3015 25.894 45.8293 23.6555 45.8293 20.1465Z" fill="#AEC0CE"/>
<path fill-rule="evenodd" clip-rule="evenodd" d="M51.6674 20.0255C51.6674 14.9435 55.6397 10.5875 61.1769 10.5875C65.7511 10.5875 70.6864 13.8545 70.7465 20.1465C70.7465 25.7125 66.5335 29.645 61.2973 29.645C55.5194 29.645 51.6674 25.2285 51.6674 20.0255ZM66.5335 20.1465C66.5335 16.6375 63.9455 14.399 61.2371 14.399C58.1676 14.399 55.8203 16.819 55.8805 20.086C55.8805 23.474 58.2278 25.894 61.2371 25.894C64.0057 25.894 66.5335 23.6555 66.5335 20.1465Z" fill="#AEC0CE"/>
<path fill-rule="evenodd" clip-rule="evenodd" d="M72.3716 20.1465C72.3716 15.1249 76.3439 10.6479 81.4597 10.6479C83.6867 10.6479 85.3719 11.4949 86.4552 12.8259V11.1924H90.4275V28.3139C90.4275 35.0294 86.5756 38.236 81.5199 38.236C76.8856 38.236 74.2976 35.3925 73.0336 32.67L76.705 31.1574C77.2467 32.3675 78.6912 34.5455 81.5801 34.5455C84.5894 34.5455 86.5756 32.549 86.5756 29.2819V27.4065C85.4321 28.677 84.0478 29.7055 81.3394 29.7055C77.0059 29.7055 72.3716 25.8335 72.3716 20.1465ZM86.8765 20.2069C86.8765 16.5769 84.2885 14.3989 81.8209 14.3989C79.1727 14.3989 76.5846 16.5164 76.5245 20.2674C76.5245 23.716 79.0523 25.9544 81.7607 25.9544C84.3487 25.9544 86.8765 23.9579 86.8765 20.2069Z" fill="#AEC0CE"/>
<path fill-rule="evenodd" clip-rule="evenodd" d="M99.3953 20.086C99.3953 14.399 103.428 10.5875 108.243 10.5875C111.974 10.5875 114.803 13.1285 116.067 16.0325L116.729 17.6055L104.03 22.9295C104.812 24.3815 106.016 25.8335 108.664 25.8335C111.011 25.8335 112.456 24.563 113.298 23.232L116.609 25.4705C115.164 27.4065 112.636 29.645 108.664 29.645C103.909 29.645 99.3953 26.0755 99.3953 20.086ZM111.914 16.335C111.312 15.1855 110.109 14.278 108.363 14.278C105.655 14.278 103.007 17.1215 103.488 19.9045L111.914 16.335Z" fill="#AEC0CE"/>
<path d="M93.3767 29.1004H97.5296V1.02844H93.3767V29.1004Z" fill="#AEC0CE"/>
</svg>
