<svg width="15" height="15" viewBox="0 0 15 15" fill="none" xmlns="http://www.w3.org/2000/svg">
<path d="M7.33337 3.7395C5.33337 3.7395 3.73962 5.3645 3.73962 7.33325C3.73962 9.33325 5.33337 10.927 7.33337 10.927C9.30212 10.927 10.9271 9.33325 10.9271 7.33325C10.9271 5.3645 9.30212 3.7395 7.33337 3.7395ZM7.33337 9.677C6.05212 9.677 4.98962 8.64575 4.98962 7.33325C4.98962 6.052 6.02087 5.02075 7.33337 5.02075C8.61462 5.02075 9.64587 6.052 9.64587 7.33325C9.64587 8.64575 8.61462 9.677 7.33337 9.677ZM11.8959 3.6145C11.8959 3.14575 11.5209 2.77075 11.0521 2.77075C10.5834 2.77075 10.2084 3.14575 10.2084 3.6145C10.2084 4.08325 10.5834 4.45825 11.0521 4.45825C11.5209 4.45825 11.8959 4.08325 11.8959 3.6145ZM14.2709 4.45825C14.2084 3.33325 13.9584 2.33325 13.1459 1.52075C12.3334 0.708252 11.3334 0.458252 10.2084 0.395752C9.05212 0.333252 5.58337 0.333252 4.42712 0.395752C3.30212 0.458252 2.33337 0.708252 1.48962 1.52075C0.677124 2.33325 0.427124 3.33325 0.364624 4.45825C0.302124 5.6145 0.302124 9.08325 0.364624 10.2395C0.427124 11.3645 0.677124 12.3333 1.48962 13.177C2.33337 13.9895 3.30212 14.2395 4.42712 14.302C5.58337 14.3645 9.05212 14.3645 10.2084 14.302C11.3334 14.2395 12.3334 13.9895 13.1459 13.177C13.9584 12.3333 14.2084 11.3645 14.2709 10.2395C14.3334 9.08325 14.3334 5.6145 14.2709 4.45825ZM12.7709 11.4583C12.5521 12.0833 12.0521 12.552 11.4584 12.802C10.5209 13.177 8.33337 13.0833 7.33337 13.0833C6.30212 13.0833 4.11462 13.177 3.20837 12.802C2.58337 12.552 2.11462 12.0833 1.86462 11.4583C1.48962 10.552 1.58337 8.3645 1.58337 7.33325C1.58337 6.33325 1.48962 4.14575 1.86462 3.20825C2.11462 2.6145 2.58337 2.14575 3.20837 1.89575C4.11462 1.52075 6.30212 1.6145 7.33337 1.6145C8.33337 1.6145 10.5209 1.52075 11.4584 1.89575C12.0521 2.1145 12.5209 2.6145 12.7709 3.20825C13.1459 4.14575 13.0521 6.33325 13.0521 7.33325C13.0521 8.3645 13.1459 10.552 12.7709 11.4583Z" fill="#D3D6D8"/>
</svg>
