<svg width="15" height="15" viewBox="0 0 15 15" fill="none" xmlns="http://www.w3.org/2000/svg">
<path d="M13.3334 0.333252H1.30212C0.770874 0.333252 0.333374 0.802002 0.333374 1.3645V13.3333C0.333374 13.8958 0.770874 14.3333 1.30212 14.3333H13.3334C13.8646 14.3333 14.3334 13.8958 14.3334 13.3333V1.3645C14.3334 0.802002 13.8646 0.333252 13.3334 0.333252ZM4.55212 12.3333H2.48962V5.677H4.55212V12.3333ZM3.52087 4.7395C2.83337 4.7395 2.30212 4.20825 2.30212 3.552C2.30212 2.89575 2.83337 2.33325 3.52087 2.33325C4.17712 2.33325 4.70837 2.89575 4.70837 3.552C4.70837 4.20825 4.17712 4.7395 3.52087 4.7395ZM12.3334 12.3333H10.2396V9.08325C10.2396 8.33325 10.2396 7.33325 9.17712 7.33325C8.08337 7.33325 7.92712 8.177 7.92712 9.052V12.3333H5.86462V5.677H7.83337V6.58325H7.86462C8.14587 6.052 8.83337 5.4895 9.83337 5.4895C11.9271 5.4895 12.3334 6.89575 12.3334 8.677V12.3333Z" fill="#D3D6D8"/>
</svg>
