<svg width="90" height="28" viewBox="0 0 90 28" fill="none" xmlns="http://www.w3.org/2000/svg">
<path fill-rule="evenodd" clip-rule="evenodd" d="M18.0313 0.830357V18.3884C18.0313 18.6205 18.1091 18.8147 18.2647 18.971C18.4203 19.1272 18.6137 19.2054 18.8448 19.2054H21.8323C22.0634 19.2054 22.2568 19.1272 22.4124 18.971C22.568 18.8147 22.6458 18.6205 22.6458 18.3884V10.3337C23.9172 9.05695 25.1087 7.91518 26.2201 7.91518C27.9183 7.91518 28.7674 8.56695 28.7674 10.7009V18.3884C28.7674 18.6205 28.8452 18.8147 29.0008 18.971C29.1564 19.1272 29.3497 19.2054 29.5809 19.2054H32.555C32.7951 19.2054 32.9929 19.1272 33.1485 18.971C33.3041 18.8147 33.3819 18.6205 33.3819 18.3884V10.7009C33.3819 8.52231 32.8395 6.90402 31.7548 5.84598C30.6701 4.78794 29.2631 4.25893 27.5337 4.25893C25.8044 4.25893 24.1751 4.90624 22.6458 6.20089V0.830357C22.6458 0.589284 22.568 0.390626 22.4124 0.234375C22.2568 0.0781242 22.0634 0 21.8323 0H18.8448C18.6137 0 18.4203 0.0781242 18.2647 0.234375C18.1091 0.390626 18.0313 0.589284 18.0313 0.830357ZM2.05386 17.5179C0.684613 16.2143 0 14.3371 0 11.8862C0 9.43526 0.689059 7.55135 2.0672 6.23438C3.44533 4.9174 5.35692 4.25893 7.802 4.25893C10.2471 4.25893 12.1542 4.89955 13.5235 6.1808C14.8927 7.46206 15.5773 9.2991 15.5773 11.692V12.4554C15.5773 12.6964 15.4995 12.8951 15.3439 13.0513C15.1883 13.2076 14.9905 13.2857 14.7504 13.2857H4.70787C4.79679 14.3839 5.1102 15.183 5.64812 15.683C6.18603 16.183 7.04625 16.433 8.22878 16.433C9.41131 16.433 10.2204 16.1652 10.6561 15.6295C11.0917 15.0937 11.9265 15.1757 13.2141 15.3563C14.5017 15.5369 14.7921 16.2179 14.7504 16.433C14.342 18.5424 12.202 19.4813 7.78866 19.4733C5.33469 19.4733 3.42311 18.8214 2.05386 17.5179ZM4.68122 10.4597H10.8828C10.7939 8.35256 9.76476 7.299 7.79535 7.299C5.82595 7.299 4.78792 8.35256 4.68122 10.4597ZM39.2367 20.5982L40.9839 20.8259C42.0451 20.8259 42.8355 20.1637 43.3552 18.8394C43.3646 18.8155 43.2886 18.8031 43.1477 18.7802C42.6104 18.6928 41.1293 18.4518 39.8369 16.8328C38.3555 14.9771 38.1354 14.2607 37.5615 12.393L37.5613 12.3923C37.5033 12.2034 37.4416 12.0028 37.3747 11.788L35.3875 5.31927C35.3609 5.24784 35.3475 5.16525 35.3475 5.0715C35.3475 4.97775 35.4031 4.86391 35.5142 4.72998C35.6254 4.59605 35.7921 4.52462 36.0144 4.51569L38.6366 4.52679C38.8944 4.52679 39.1412 4.61385 39.3768 4.78795C39.6124 4.96206 39.7658 5.17858 39.8369 5.43751L41.584 11.1161C42.0197 12.5089 42.462 13.4732 42.911 14.0089C43.36 14.5447 43.8913 14.8125 44.5048 14.8125L47.1588 5.43751C47.2299 5.17858 47.3699 4.96206 47.5789 4.78795C47.7878 4.61385 48.0212 4.52679 48.2791 4.52679H51.0931C51.3154 4.52679 51.4799 4.59822 51.5866 4.74108C51.6933 4.88394 51.7466 5.00224 51.7466 5.09599C51.7466 5.18974 51.7377 5.26786 51.7199 5.33036L48.2257 17.8393C47.6033 20.0536 46.832 21.6339 45.9118 22.5804C44.9916 23.5268 43.8068 24 42.3575 24L41.8005 23.9972C40.6426 23.9848 39.8036 23.9321 39.2834 23.8393C38.6833 23.7321 38.3076 23.6005 38.1565 23.4442C38.0053 23.288 37.9297 23.1072 37.9297 22.9018V21.4286C37.9297 21.1875 38.0053 20.9888 38.1565 20.8326C38.3076 20.6763 38.5032 20.5982 38.7433 20.5982H39.2367ZM53.267 18.2411C52.0933 17.4196 51.5065 16.2589 51.5065 14.7589C51.5065 13.2589 52.0956 12.1071 53.2736 11.3036C54.4517 10.5 55.9699 10.0982 57.8281 10.0982H62.2426C62.2426 9.05357 62.0248 8.3259 61.5891 7.91518C61.1534 7.50446 60.391 7.29911 59.3019 7.29911C58.2853 7.29911 57.5514 7.53438 57.1003 8.00494L57.0079 8.10938C56.5678 8.64956 55.1824 8.4659 53.9455 8.22764C52.7087 7.98939 52.6286 7.3584 52.739 7.03003C53.3599 5.18262 55.7276 4.25893 59.842 4.25893C61.9581 4.25893 63.6563 4.73437 64.9366 5.68527C66.217 6.63617 66.8571 8.10713 66.8571 10.0982V18.3884C66.8571 18.6295 66.7816 18.8259 66.6304 18.9777C66.4792 19.1295 66.2836 19.2054 66.0436 19.2054H63.4696C63.2295 19.2054 63.0339 19.1272 62.8828 18.971C62.7316 18.8147 62.656 18.6205 62.656 18.3884V17.9732C61.2512 18.9821 59.6308 19.4844 57.7948 19.4799C55.9588 19.4754 54.4495 19.0625 53.267 18.2411ZM58.1482 13.1383H62.2426V15.2276C60.9712 16.0311 59.6508 16.4329 58.2816 16.4329C57.597 16.4329 57.0679 16.2767 56.6945 15.9642C56.3211 15.6517 56.1344 15.2544 56.1344 14.7722C56.1344 14.2901 56.3144 13.8972 56.6745 13.5936C57.0346 13.2901 57.5258 13.1383 58.1482 13.1383Z" fill="white"/>
<path fill-rule="evenodd" clip-rule="evenodd" d="M73.7143 12C75.6079 12 77.1429 10.4649 77.1429 8.57139C77.1429 6.67785 75.6079 5.14282 73.7143 5.14282C71.8208 5.14282 70.2858 6.67785 70.2858 8.57139C70.2858 10.4649 71.8208 12 73.7143 12Z" fill="#005490"/>
</svg>
