<svg width="116" height="32" viewBox="0 0 116 32" fill="none" xmlns="http://www.w3.org/2000/svg">
<path fill-rule="evenodd" clip-rule="evenodd" d="M12.8895 30.1832L12.8895 30.1832L12.8894 30.1832C12.2208 30.2517 11.5421 30.3213 10.8472 30.4069L5.27149 14.2765V31.0933C3.52909 31.2649 1.96093 31.4937 0.276611 31.7797V0.948853H4.92301L11.2537 18.4521V0.948853H16.1905V29.7777C15.0997 29.9567 14.009 30.0685 12.8897 30.1832L12.8896 30.1832L12.8896 30.1832L12.8895 30.1832ZM29.2632 12.2152H29.2632L29.2633 12.2152C30.4173 12.1873 31.5444 12.1601 32.3949 12.1601V16.9649C30.2459 16.9649 27.6904 16.9649 25.8318 17.0793V24.2293C26.7369 24.1747 27.6478 24.1143 28.5628 24.0537L28.5629 24.0537L28.5631 24.0537H28.5632H28.5632H28.5632H28.5632C30.5251 23.9237 32.5054 23.7925 34.4857 23.7145V28.3477L20.9531 29.3773V0.948853H34.4857V5.75365H25.8318V12.2745C26.8129 12.2745 28.0527 12.2445 29.263 12.2152H29.2631H29.2631H29.2632H29.2632ZM47.5537 5.81085H52.6067C52.6067 5.81085 52.6067 0.948853 52.6648 0.948853H37.6221V5.81085H42.675V28.0045C44.2432 27.9473 45.9275 27.9473 47.5537 27.9473V5.81085ZM60.5637 11.9313H67.2429V16.7361H60.5637V27.6613H55.743V0.948853H69.3918V5.75365H60.5637V11.9313ZM82.4136 23.6584C80.734 23.5612 79.0414 23.4632 77.3488 23.4285V0.948853H72.4701V27.9473C76.9422 28.0617 81.2982 28.2905 85.6542 28.5765V23.8289C84.5818 23.7839 83.5004 23.7213 82.4136 23.6584ZM91.4262 29.0251L91.4265 29.0251C92.4731 29.0874 93.5358 29.1507 94.5985 29.2629V0.948853H89.7779V28.9197C90.3212 28.9593 90.8714 28.9921 91.4262 29.0251ZM109.757 15.5921L115.972 0.948853H110.571L107.144 9.01405L103.949 0.948853H98.7222L104.414 15.4205L98.1414 29.4917C98.8384 29.5832 99.5353 29.6564 100.232 29.7296C101.278 29.8394 102.323 29.9493 103.369 30.1209L106.97 21.9413L110.454 30.8645C111.105 30.9646 111.749 31.0718 112.391 31.1786C113.581 31.3768 114.764 31.5738 115.972 31.7225L109.757 15.5921Z" fill="#AEC0CE"/>
</svg>
