<svg width="124" height="47" viewBox="0 0 124 47" fill="none" xmlns="http://www.w3.org/2000/svg">
<path d="M111.895 13.2068L109.491 26.1541L107.047 20.0478L99.665 19.8785L111.895 13.2068Z" fill="#F9F9F9"/>
<path d="M95.7144 33.6616L99.3043 20.5054L101.088 27.2562L108.783 27.2957L95.7144 33.6616Z" fill="#CD853F"/>
<path d="M26.3095 32.4697C25.1132 32.4697 24.0835 32.2274 23.2203 31.7428C22.3622 31.2532 21.701 30.5616 21.2366 29.6682C20.7722 28.7697 20.54 27.7072 20.54 26.4806C20.54 25.2843 20.7722 24.2344 21.2366 23.3308C21.701 22.4273 22.3547 21.7231 23.1976 21.2184C24.0456 20.7136 25.04 20.4612 26.1808 20.4612C26.9481 20.4612 27.6623 20.5849 28.3236 20.8322C28.9898 21.0745 29.5703 21.4405 30.065 21.9301C30.5647 22.4197 30.9534 23.0355 31.231 23.7775C31.5086 24.5145 31.6475 25.3777 31.6475 26.367V27.2529H21.8272V25.254H28.6113C28.6113 24.7896 28.5103 24.3782 28.3084 24.0198C28.1065 23.6615 27.8264 23.3813 27.468 23.1794C27.1146 22.9724 26.7032 22.869 26.2338 22.869C25.7442 22.869 25.3101 22.9825 24.9315 23.2097C24.558 23.4318 24.2652 23.7321 24.0532 24.1107C23.8412 24.4842 23.7327 24.9007 23.7276 25.36V27.2605C23.7276 27.8359 23.8336 28.3331 24.0456 28.752C24.2627 29.171 24.5681 29.4941 24.9618 29.7212C25.3555 29.9483 25.8224 30.0619 26.3625 30.0619C26.7209 30.0619 27.049 30.0114 27.3468 29.9105C27.6446 29.8095 27.8995 29.6581 28.1115 29.4562C28.3236 29.2543 28.4851 29.007 28.5961 28.7142L31.5793 28.911C31.4279 29.6278 31.1174 30.2537 30.648 30.7888C30.1836 31.3188 29.583 31.7327 28.846 32.0305C28.1141 32.3233 27.2686 32.4697 26.3095 32.4697ZM36.9778 25.519V32.2425H33.7523V20.6126H36.8264V22.6645H36.9627C37.2201 21.9881 37.6517 21.4531 38.2574 21.0594C38.8631 20.6606 39.5976 20.4612 40.4607 20.4612C41.2683 20.4612 41.9725 20.6379 42.5732 20.9912C43.1739 21.3446 43.6408 21.8493 43.9739 22.5055C44.3071 23.1567 44.4736 23.934 44.4736 24.8376V32.2425H41.2482V25.413C41.2532 24.7013 41.0715 24.146 40.703 23.7473C40.3345 23.3434 39.8272 23.1415 39.1811 23.1415C38.747 23.1415 38.3634 23.2349 38.0303 23.4217C37.7022 23.6085 37.4447 23.881 37.258 24.2394C37.0762 24.5928 36.9829 25.0193 36.9778 25.519ZM51.3013 32.4318C50.4179 32.4318 49.6179 32.2047 48.9011 31.7504C48.1894 31.291 47.624 30.6172 47.2051 29.7288C46.7912 28.8353 46.5842 27.74 46.5842 26.4427C46.5842 25.1101 46.7987 24.0022 47.2278 23.1188C47.6568 22.2304 48.2272 21.5667 48.9389 21.1275C49.6557 20.6833 50.4406 20.4612 51.2937 20.4612C51.9448 20.4612 52.4875 20.5723 52.9216 20.7944C53.3607 21.0114 53.7141 21.284 53.9816 21.6121C54.2542 21.9351 54.4611 22.2531 54.6025 22.5661H54.7009V16.736H57.9188V32.2425H54.7387V30.3799H54.6025C54.451 30.703 54.2365 31.0235 53.9589 31.3415C53.6863 31.6545 53.3304 31.9144 52.8913 32.1214C52.4572 32.3283 51.9272 32.4318 51.3013 32.4318ZM52.3234 29.8651C52.8433 29.8651 53.2825 29.7237 53.6409 29.4411C54.0043 29.1533 54.2819 28.752 54.4737 28.2372C54.6706 27.7223 54.769 27.1191 54.769 26.4276C54.769 25.7361 54.6731 25.1354 54.4813 24.6256C54.2895 24.1157 54.0119 23.722 53.6484 23.4444C53.285 23.1668 52.8433 23.028 52.3234 23.028C51.7934 23.028 51.3467 23.1718 50.9833 23.4595C50.6198 23.7473 50.3447 24.146 50.158 24.6558C49.9712 25.1657 49.8778 25.7562 49.8778 26.4276C49.8778 27.104 49.9712 27.7021 50.158 28.222C50.3498 28.7369 50.6249 29.1407 50.9833 29.4335C51.3467 29.7212 51.7934 29.8651 52.3234 29.8651ZM63.7962 25.519V32.2425H60.5707V20.6126H63.6448V22.6645H63.781C64.0385 21.9881 64.4701 21.4531 65.0758 21.0594C65.6815 20.6606 66.4159 20.4612 67.2791 20.4612C68.0867 20.4612 68.7909 20.6379 69.3915 20.9912C69.9922 21.3446 70.4591 21.8493 70.7923 22.5055C71.1254 23.1567 71.292 23.934 71.292 24.8376V32.2425H68.0665V25.413C68.0716 24.7013 67.8899 24.146 67.5214 23.7473C67.1529 23.3434 66.6456 23.1415 65.9995 23.1415C65.5654 23.1415 65.1818 23.2349 64.8486 23.4217C64.5205 23.6085 64.2631 23.881 64.0763 24.2394C63.8946 24.5928 63.8012 25.0193 63.7962 25.519ZM77.1505 32.4621C76.4085 32.4621 75.7472 32.3334 75.1667 32.0759C74.5863 31.8135 74.1269 31.4273 73.7887 30.9175C73.4556 30.4026 73.289 29.7616 73.289 28.9943C73.289 28.3482 73.4076 27.8056 73.6449 27.3665C73.8821 26.9273 74.2052 26.574 74.614 26.3064C75.0229 26.0389 75.4873 25.837 76.0072 25.7007C76.5321 25.5644 77.0823 25.4685 77.6578 25.413C78.3342 25.3423 78.8793 25.2767 79.2932 25.2161C79.7071 25.1505 80.0075 25.0546 80.1942 24.9284C80.381 24.8022 80.4744 24.6155 80.4744 24.3681V24.3227C80.4744 23.8432 80.323 23.4722 80.0201 23.2097C79.7223 22.9472 79.2983 22.816 78.7481 22.816C78.1676 22.816 77.7057 22.9447 77.3625 23.2021C77.0192 23.4545 76.7921 23.7725 76.681 24.1561L73.6979 23.9138C73.8493 23.2072 74.1471 22.5964 74.5913 22.0815C75.0355 21.5616 75.6084 21.1628 76.31 20.8852C77.0167 20.6026 77.8344 20.4612 78.7632 20.4612C79.4093 20.4612 80.0277 20.5369 80.6182 20.6884C81.2139 20.8398 81.7414 21.0745 82.2007 21.3925C82.6651 21.7105 83.031 22.1194 83.2986 22.6191C83.5661 23.1138 83.6999 23.7069 83.6999 24.3984V32.2425H80.641V30.6298H80.5501C80.3633 30.9932 80.1135 31.3137 79.8005 31.5914C79.4876 31.8639 79.1115 32.0785 78.6724 32.235C78.2332 32.3864 77.7259 32.4621 77.1505 32.4621ZM78.0742 30.2361C78.5487 30.2361 78.9676 30.1427 79.3311 29.9559C79.6945 29.7641 79.9797 29.5067 80.1867 29.1836C80.3936 28.8606 80.4971 28.4946 80.4971 28.0858V26.8516C80.3961 26.9172 80.2573 26.9778 80.0807 27.0333C79.909 27.0838 79.7147 27.1317 79.4977 27.1772C79.2806 27.2175 79.0636 27.2554 78.8465 27.2907C78.6295 27.321 78.4326 27.3488 78.2559 27.374C77.8773 27.4296 77.5467 27.5179 77.2641 27.639C76.9814 27.7602 76.7618 27.9242 76.6053 28.1312C76.4488 28.3331 76.3706 28.5855 76.3706 28.8883C76.3706 29.3275 76.5296 29.6632 76.8476 29.8953C77.1707 30.1225 77.5795 30.2361 78.0742 30.2361ZM89.5186 32.4621C88.7766 32.4621 88.1153 32.3334 87.5348 32.0759C86.9544 31.8135 86.495 31.4273 86.1568 30.9175C85.8237 30.4026 85.6571 29.7616 85.6571 28.9943C85.6571 28.3482 85.7757 27.8056 86.013 27.3665C86.2502 26.9273 86.5733 26.574 86.9821 26.3064C87.391 26.0389 87.8554 25.837 88.3753 25.7007C88.9002 25.5644 89.4504 25.4685 90.0259 25.413C90.7023 25.3423 91.2474 25.2767 91.6613 25.2161C92.0752 25.1505 92.3756 25.0546 92.5623 24.9284C92.7491 24.8022 92.8425 24.6155 92.8425 24.3681V24.3227C92.8425 23.8432 92.691 23.4722 92.3882 23.2097C92.0904 22.9472 91.6664 22.816 91.1162 22.816C90.5357 22.816 90.0738 22.9447 89.7306 23.2021C89.3873 23.4545 89.1602 23.7725 89.0491 24.1561L86.066 23.9138C86.2174 23.2072 86.5152 22.5964 86.9594 22.0815C87.4036 21.5616 87.9765 21.1628 88.6781 20.8852C89.3848 20.6026 90.2025 20.4612 91.1313 20.4612C91.7774 20.4612 92.3958 20.5369 92.9863 20.6884C93.582 20.8398 94.1095 21.0745 94.5688 21.3925C95.0332 21.7105 95.3991 22.1194 95.6667 22.6191C95.9342 23.1138 96.068 23.7069 96.068 24.3984V32.2425H93.0091V30.6298H92.9182C92.7314 30.9932 92.4816 31.3137 92.1686 31.5914C91.8557 31.8639 91.4796 32.0785 91.0405 32.235C90.6013 32.3864 90.094 32.4621 89.5186 32.4621ZM90.4423 30.2361C90.9168 30.2361 91.3357 30.1427 91.6992 29.9559C92.0626 29.7641 92.3478 29.5067 92.5548 29.1836C92.7617 28.8606 92.8652 28.4946 92.8652 28.0858V26.8516C92.7642 26.9172 92.6254 26.9778 92.4488 27.0333C92.2771 27.0838 92.0828 27.1317 91.8658 27.1772C91.6487 27.2175 91.4317 27.2554 91.2146 27.2907C90.9976 27.321 90.8007 27.3488 90.624 27.374C90.2454 27.4296 89.9148 27.5179 89.6322 27.639C89.3495 27.7602 89.1299 27.9242 88.9734 28.1312C88.8169 28.3331 88.7387 28.5855 88.7387 28.8883C88.7387 29.3275 88.8977 29.6632 89.2157 29.8953C89.5388 30.1225 89.9476 30.2361 90.4423 30.2361Z" fill="#F9F9F9"/>
<path d="M13.52 32.656C12.48 32.656 11.544 32.472 10.712 32.104C9.896 31.72 9.248 31.208 8.768 30.568C8.288 29.912 8.032 29.184 8 28.384H10.832C10.88 28.944 11.144 29.416 11.624 29.8C12.12 30.168 12.736 30.352 13.472 30.352C14.24 30.352 14.832 30.208 15.248 29.92C15.68 29.616 15.896 29.232 15.896 28.768C15.896 28.272 15.656 27.904 15.176 27.664C14.712 27.424 13.968 27.16 12.944 26.872C11.952 26.6 11.144 26.336 10.52 26.08C9.896 25.824 9.352 25.432 8.888 24.904C8.44 24.376 8.216 23.68 8.216 22.816C8.216 22.112 8.424 21.472 8.84 20.896C9.256 20.304 9.848 19.84 10.616 19.504C11.4 19.168 12.296 19 13.304 19C14.808 19 16.016 19.384 16.928 20.152C17.856 20.904 18.352 21.936 18.416 23.248H15.68C15.632 22.656 15.392 22.184 14.96 21.832C14.528 21.48 13.944 21.304 13.208 21.304C12.488 21.304 11.936 21.44 11.552 21.712C11.168 21.984 10.976 22.344 10.976 22.792C10.976 23.144 11.104 23.44 11.36 23.68C11.616 23.92 11.928 24.112 12.296 24.256C12.664 24.384 13.208 24.552 13.928 24.76C14.888 25.016 15.672 25.28 16.28 25.552C16.904 25.808 17.44 26.192 17.888 26.704C18.336 27.216 18.568 27.896 18.584 28.744C18.584 29.496 18.376 30.168 17.96 30.76C17.544 31.352 16.952 31.816 16.184 32.152C15.432 32.488 14.544 32.656 13.52 32.656Z" fill="white"/>
</svg>
