<svg width="230" height="39" viewBox="0 0 230 39" fill="none" xmlns="http://www.w3.org/2000/svg">
<path d="M72.2388 3.962C71.709 2.22627 69.8549 1.29165 68.1332 1.82572C66.4115 2.35979 65.4845 4.22903 66.0142 5.96476L74.4902 32.2677C75.0862 33.8699 76.8079 34.8045 78.4634 34.3372C80.1851 33.8031 81.2446 32.0006 80.7148 30.2649C80.7148 30.1981 72.2388 3.962 72.2388 3.962Z" fill="#AEC0CE"/>
<path d="M59.1275 8.30135C58.5977 6.56563 56.7436 5.63101 55.0219 6.16508C53.3002 6.69914 52.3731 8.56839 52.9029 10.3041L61.3789 36.607C61.9749 38.2092 63.6966 39.1438 65.352 38.6765C67.0737 38.1425 68.1332 36.34 67.6035 34.6042C67.6035 34.5375 59.1275 8.30135 59.1275 8.30135Z" fill="#AEC0CE"/>
<path d="M82.9663 25.7921C84.688 25.258 85.6151 23.3888 85.0853 21.653C84.5556 19.9173 82.7014 18.9827 80.9798 19.5168L54.8233 27.9951C53.234 28.5959 52.307 30.3317 52.7705 32.0006C53.3002 33.7363 55.0882 34.8045 56.8099 34.2704C56.9423 34.2704 82.9663 25.7921 82.9663 25.7921Z" fill="#AEC0CE"/>
<path d="M60.2532 33.2024C61.9749 32.6683 64.1601 31.934 66.4778 31.1329C65.9481 29.3971 65.2196 27.1941 64.425 24.8575L58.2004 26.9271L60.2532 33.2024Z" fill="#AEC0CE"/>
<path d="M73.4307 28.863C75.8146 28.0619 77.9998 27.3943 79.6553 26.7935C79.1255 25.0578 78.3971 22.8547 77.6025 20.5182L71.3779 22.5877L73.4307 28.863Z" fill="#AEC0CE"/>
<path d="M78.6621 12.5072C80.3838 11.9731 81.3108 10.1038 80.7811 8.36812C80.2513 6.6324 78.3972 5.69778 76.6755 6.23185L50.5852 14.777C48.996 15.3778 48.0689 17.1135 48.5325 18.7825C49.0622 20.585 50.8501 21.6531 52.5718 21.0523C52.638 21.0523 78.6621 12.5072 78.6621 12.5072Z" fill="#AEC0CE"/>
<path d="M56.0152 19.9173C57.7369 19.3833 59.9221 18.6489 62.2398 17.8478C61.4451 15.4445 60.7829 13.2415 60.187 11.5725L53.9624 13.642L56.0152 19.9173Z" fill="#AEC0CE"/>
<path d="M69.1265 15.6448C71.5104 14.8437 73.6956 14.1761 75.3511 13.5752C74.5565 11.1719 73.8943 8.96889 73.2983 7.29993L67.0737 9.36944L69.1265 15.6448Z" fill="#AEC0CE"/>
<path d="M109.388 10.9049C110.513 11.439 110.646 11.7728 109.719 13.5085C108.792 15.311 108.593 15.3777 107.401 14.9104C105.944 14.3096 104.156 13.8423 102.964 13.8423C101.044 13.8423 99.7859 14.5099 99.7859 15.578C99.7859 19.0495 110.844 17.1802 110.844 24.6572C110.844 28.3957 107.666 30.8657 102.898 30.8657C100.382 30.8657 97.2696 29.9979 95.1506 28.9297C94.0911 28.3957 94.0249 28.0619 94.9519 26.2594C95.7466 24.7239 96.0114 24.5237 97.1371 24.991C98.9913 25.7921 101.243 26.3929 102.832 26.3929C104.62 26.3929 105.746 25.6586 105.746 24.5904C105.746 21.1857 94.4884 22.7879 94.4884 15.578C94.4884 11.7728 97.6669 9.16919 102.368 9.16919C104.62 9.36947 107.467 10.0371 109.388 10.9049Z" fill="#AEC0CE"/>
<path d="M118.327 2.0928V29.8644C118.327 30.2649 117.864 30.7322 117.268 30.7322H114.354C113.692 30.7322 113.295 30.2649 113.295 29.8644V2.0928C113.295 0.690868 113.692 0.62411 115.811 0.62411C118.195 0.557351 118.327 0.757627 118.327 2.0928Z" fill="#AEC0CE"/>
<path fill-rule="evenodd" clip-rule="evenodd" d="M138.855 29.5974V17.6476C138.855 12.4404 135.345 9.36951 129.783 9.36951C127.267 9.36951 124.486 10.1706 122.499 11.5058C121.439 12.1734 121.439 12.5072 122.499 14.1761C123.625 15.8451 123.823 15.9119 124.883 15.311C126.207 14.5099 127.863 13.9759 129.253 13.9759C132.167 13.9759 133.889 15.311 133.889 17.5141V18.916C132.498 18.3152 130.776 17.9814 128.922 17.9814C123.956 17.9814 120.711 20.6517 120.711 24.6572C120.711 28.3957 123.625 30.9325 127.929 30.9325C130.18 30.9325 132.432 29.9979 133.955 28.2622L133.889 29.5306C133.822 30.1982 134.286 30.6655 134.948 30.6655H137.796C138.392 30.6655 138.855 30.265 138.855 29.5974ZM128.525 26.927C126.737 26.927 125.545 25.9924 125.545 24.5905C125.545 22.8547 127.333 21.5196 129.982 21.5196C131.24 21.5196 132.697 21.7199 133.822 22.1872V24.0564C132.697 25.8589 130.71 26.927 128.525 26.927Z" fill="#AEC0CE"/>
<path d="M158.522 10.9717C159.582 11.5725 159.582 11.9063 158.456 13.7088C157.396 15.3778 157.198 15.5113 156.006 14.9104C155.145 14.4431 153.688 14.0426 152.562 14.0426C148.92 14.0426 146.536 16.4459 146.536 20.1176C146.536 23.9229 148.92 26.4597 152.562 26.4597C153.82 26.4597 155.41 25.9924 156.403 25.3915C157.463 24.7907 157.661 24.7907 158.787 26.4597C159.78 27.9951 159.78 28.3289 158.853 28.9965C157.264 30.1314 154.681 30.9993 152.43 30.9993C145.742 30.9993 141.239 26.66 141.239 20.1844C141.239 13.7088 145.742 9.43624 152.496 9.43624C154.615 9.36948 156.999 10.0371 158.522 10.9717Z" fill="#AEC0CE"/>
<path d="M180.44 28.0619C181.301 29.1301 180.97 29.5306 178.851 30.265C176.732 31.0661 176.401 30.9993 175.673 29.9979L169.647 21.9201L166.932 24.5237V29.7977C166.932 30.1982 166.468 30.6655 165.872 30.6655H162.959C162.296 30.6655 161.899 30.1982 161.899 29.7977V2.09284C161.899 0.690904 162.296 0.624146 164.415 0.624146C166.866 0.624146 166.932 0.824421 166.932 2.09284V17.8479L175.143 9.90359C176.07 9.03573 176.534 9.10249 178.189 10.1706C179.977 11.3055 180.109 11.6393 179.249 12.5072L173.156 18.5155L180.44 28.0619Z" fill="#AEC0CE"/>
</svg>
