<svg width="20" height="16" viewBox="0 0 20 16" fill="none" xmlns="http://www.w3.org/2000/svg">
<path fill-rule="evenodd" clip-rule="evenodd" d="M9.93445 4.25625L9.97642 4.9483L9.27694 4.86356C6.73083 4.53872 4.50649 3.4371 2.6179 1.58693L1.69458 0.668915L1.45676 1.34684C0.953135 2.85804 1.2749 4.45398 2.32411 5.52735C2.8837 6.12054 2.75779 6.20528 1.79251 5.85219C1.45676 5.7392 1.16298 5.65446 1.135 5.69683C1.03707 5.7957 1.37282 7.08092 1.63862 7.58937C2.00235 8.29553 2.7438 8.98758 3.5552 9.39716L4.24069 9.72199L3.42929 9.73612C2.64587 9.73612 2.6179 9.75024 2.70183 10.0468C2.98163 10.9649 4.0868 11.9394 5.31789 12.3631L6.18524 12.6597L5.4298 13.1116C4.31064 13.7613 2.99561 14.1285 1.68059 14.1567C1.05106 14.1709 0.533447 14.2273 0.533447 14.2697C0.533447 14.411 2.24018 15.2019 3.23344 15.5126C6.21322 16.4306 9.75259 16.0351 12.4106 14.4674C14.2992 13.3517 16.1878 11.1343 17.0691 8.98758C17.5448 7.84359 18.0204 5.75333 18.0204 4.75057C18.0204 4.10089 18.0624 4.01615 18.8458 3.23937C19.3075 2.78742 19.7411 2.2931 19.8251 2.15187C19.965 1.88352 19.951 1.88352 19.2375 2.12362C18.0484 2.54732 17.8805 2.49083 18.4681 1.85528C18.9018 1.40333 19.4194 0.584174 19.4194 0.344077C19.4194 0.301707 19.2095 0.372324 18.9717 0.499434C18.7199 0.640668 18.1603 0.852518 17.7406 0.979629L16.9852 1.21973L16.2997 0.753655C15.922 0.499434 15.3904 0.216967 15.1106 0.132227C14.3971 -0.0655006 13.3059 -0.0372539 12.6624 0.18872C10.9137 0.824272 9.80854 2.46258 9.93445 4.25625Z" fill="#0F001A"/>
</svg>
