<svg width="17" height="14" viewBox="0 0 17 14" fill="none" xmlns="http://www.w3.org/2000/svg">
<path d="M14.6771 4.08325C15.3021 3.6145 15.8646 3.052 16.3021 2.39575C15.7396 2.64575 15.0834 2.83325 14.4271 2.89575C15.1146 2.4895 15.6146 1.8645 15.8646 1.08325C15.2396 1.45825 14.5209 1.7395 13.8021 1.89575C13.1771 1.2395 12.3334 0.864502 11.3959 0.864502C9.58337 0.864502 8.11462 2.33325 8.11462 4.14575C8.11462 4.39575 8.14587 4.64575 8.20837 4.89575C5.48962 4.7395 3.05212 3.427 1.42712 1.45825C1.14587 1.927 0.989624 2.4895 0.989624 3.1145C0.989624 4.2395 1.55212 5.2395 2.45837 5.83325C1.92712 5.802 1.39587 5.677 0.958374 5.427V5.45825C0.958374 7.052 2.08337 8.3645 3.58337 8.677C3.33337 8.7395 3.02087 8.802 2.73962 8.802C2.52087 8.802 2.33337 8.77075 2.11462 8.7395C2.52087 10.052 3.73962 10.9895 5.17712 11.0208C4.05212 11.8958 2.64587 12.427 1.11462 12.427C0.833374 12.427 0.583374 12.3958 0.333374 12.3645C1.77087 13.302 3.48962 13.8333 5.36462 13.8333C11.3959 13.8333 14.6771 8.8645 14.6771 4.52075C14.6771 4.3645 14.6771 4.2395 14.6771 4.08325Z" fill="#D3D6D8"/>
</svg>
