<svg width="117" height="26" viewBox="0 0 117 26" fill="none" xmlns="http://www.w3.org/2000/svg">
<path d="M19.0742 1.23644V14.8869C19.0742 19.4371 17.1093 21.3281 12.486 21.3281C7.86271 21.3281 5.89782 19.4371 5.89782 14.8869V0.645508H1.44791C1.04337 0.645508 0.869995 0.822787 0.869995 1.23644V15.0642C0.869995 22.6872 5.60886 25.3464 12.486 25.3464C19.3631 25.3464 24.102 22.6872 24.102 15.0642V0.645508H19.6521C19.3053 0.645508 19.0742 0.822787 19.0742 1.23644Z" fill="#AEC0CE"/>
<path d="M83.6268 4.60474C83.9735 4.60474 84.1469 4.48655 84.2625 4.19109L85.5339 0.940973C85.5917 0.763694 85.5339 0.645508 85.3605 0.645508H67.4453C65.7693 0.645508 65.1336 1.17735 65.1336 2.35921V23.5145C65.1336 24.5191 65.596 24.9327 66.9252 24.9327H83.6268C83.9735 24.9327 84.1469 24.8146 84.2625 24.5191L85.5339 21.269C85.5917 21.0917 85.5339 20.9735 85.3605 20.9735H70.0459V16.6597C70.0459 15.1824 70.8549 14.4733 72.9932 14.4733H79.6392C79.9859 14.4733 80.1593 14.3551 80.2749 14.0596L81.4885 10.9277C81.5463 10.7504 81.4885 10.6322 81.3151 10.6322H69.9881V4.60474H83.6268Z" fill="#AEC0CE"/>
<path fill-rule="evenodd" clip-rule="evenodd" d="M54.8468 6.79118C54.8468 9.09581 54.0378 11.0459 52.0729 12.1096C54.7312 12.8778 55.9449 15.3006 55.8871 18.1961C55.8871 23.0418 52.5352 24.9327 47.8541 24.9327H35.429C34.0998 24.9327 33.6375 24.5191 33.6375 23.5145V2.35921C33.6375 1.17735 34.2732 0.645508 35.9492 0.645508H46.1204C50.5703 0.645508 54.8468 1.41372 54.8468 6.79118ZM38.6075 4.54565H46.4671C49.0677 4.54565 49.819 5.55023 49.819 7.67758C49.819 9.74583 49.0677 10.8095 46.4671 10.8095H38.6075V4.54565ZM47.3918 21.0326H38.6075V16.6006C38.6075 15.1233 39.4166 14.4142 41.5549 14.4142H47.3918C50.1658 14.4142 50.9748 15.537 50.9748 17.7234C50.9748 19.9689 50.1658 21.0326 47.3918 21.0326Z" fill="#AEC0CE"/>
<path fill-rule="evenodd" clip-rule="evenodd" d="M111.309 15.1824L116.625 24.5191C116.741 24.6373 116.741 24.9327 116.337 24.9327H111.829C111.496 24.9327 111.376 24.769 111.213 24.5464C111.206 24.5374 111.2 24.5283 111.193 24.5191L106.396 15.6551H102.004C99.8661 15.6551 99.057 16.3643 99.057 17.8416V24.9327H94.7227C94.3181 24.9327 94.1447 24.7555 94.1447 24.3418V2.35921C94.1447 1.17735 94.7804 0.645508 96.4564 0.645508H106.628C112.522 0.645508 116.105 2.24102 116.105 8.15032C116.105 12.7005 113.967 14.4733 111.309 15.1824ZM99.057 11.9323H107.321C110.442 11.9323 111.078 10.6913 111.078 8.20942C111.078 5.7866 110.384 4.54565 107.321 4.54565H99.057V11.9323Z" fill="#AEC0CE"/>
</svg>
