<svg width="23" height="16" viewBox="0 0 23 16" fill="none" xmlns="http://www.w3.org/2000/svg">
<path fill-rule="evenodd" clip-rule="evenodd" d="M21.7957 2.49845C21.5397 1.51497 20.7853 0.740516 19.8275 0.477677C18.0916 0 11.1304 0 11.1304 0C11.1304 0 4.16923 0 2.43327 0.477677C1.47542 0.740516 0.721075 1.51497 0.465075 2.49845C0 4.2809 0 8 0 8C0 8 0 11.719 0.465075 13.5015C0.721075 14.485 1.47542 15.2595 2.43327 15.5225C4.16923 16 11.1304 16 11.1304 16C11.1304 16 18.0916 16 19.8275 15.5225C20.7853 15.2595 21.5397 14.485 21.7957 13.5015C22.2609 11.719 22.2609 8 22.2609 8C22.2609 8 22.2609 4.2809 21.7957 2.49845Z" fill="#0F001A"/>
<path fill-rule="evenodd" clip-rule="evenodd" d="M9.0437 11.8262V4.86963L14.6089 8.34802L9.0437 11.8262Z" fill="white"/>
</svg>
